<svg width="31" height="31" viewBox="0 0 31 31" fill="none" xmlns="http://www.w3.org/2000/svg">
<path d="M25.6109 26.5595C25.4863 26.5597 25.3629 26.5352 25.2478 26.4875C25.1328 26.4398 25.0283 26.3698 24.9404 26.2815L4.07221 5.41328C3.90183 5.23394 3.80825 4.99514 3.81142 4.7478C3.81458 4.50045 3.91425 4.26413 4.08916 4.08921C4.26408 3.9143 4.5004 3.81463 4.74775 3.81146C4.9951 3.8083 5.23389 3.90188 5.41323 4.07226L26.2814 24.9404C26.414 25.0731 26.5042 25.2421 26.5408 25.426C26.5774 25.61 26.5586 25.8006 26.4868 25.9739C26.4151 26.1471 26.2936 26.2953 26.1376 26.3995C25.9817 26.5037 25.7984 26.5594 25.6109 26.5595Z" fill="#FFBD21"/>
<path d="M15.1567 22.7653C12.697 22.7653 10.325 22.0373 8.10659 20.6014C6.08676 19.2971 4.26851 17.4291 2.84805 15.2065V15.2018C4.03018 13.508 5.32496 12.0757 6.71577 10.9208C6.72835 10.9103 6.73862 10.8973 6.74591 10.8826C6.75321 10.8679 6.75738 10.8519 6.75816 10.8355C6.75894 10.8191 6.75631 10.8027 6.75044 10.7874C6.74458 10.7721 6.7356 10.7582 6.72407 10.7465L5.54312 9.56735C5.52214 9.54619 5.49396 9.53371 5.46418 9.53239C5.43441 9.53107 5.40524 9.54101 5.38246 9.56023C3.90509 10.8052 2.53384 12.3324 1.28708 14.1204C1.07258 14.4283 0.95445 14.793 0.947695 15.1681C0.940939 15.5433 1.04587 15.912 1.24914 16.2274C2.81485 18.6776 4.82993 20.7413 7.07563 22.1944C9.60412 23.8324 12.3253 24.6624 15.1567 24.6624C16.685 24.6576 18.2026 24.4058 19.6505 23.9166C19.6696 23.9101 19.6867 23.8989 19.7003 23.8839C19.7138 23.869 19.7233 23.8508 19.7279 23.8312C19.7325 23.8115 19.7319 23.791 19.7264 23.7716C19.7208 23.7522 19.7104 23.7346 19.6961 23.7203L18.4168 22.441C18.3873 22.4123 18.3509 22.3917 18.3111 22.3813C18.2713 22.3709 18.2294 22.371 18.1897 22.3817C17.1989 22.6368 16.1798 22.7657 15.1567 22.7653Z" fill="#FFBD21"/>
<path d="M29.0992 14.1453C27.5306 11.7194 25.4953 9.65864 23.2141 8.18542C20.6903 6.55391 17.9039 5.69131 15.1567 5.69131C13.6446 5.694 12.1437 5.95113 10.7169 6.45194C10.6979 6.45855 10.6808 6.4699 10.6674 6.4849C10.654 6.49991 10.6446 6.51809 10.6402 6.53772C10.6358 6.55735 10.6364 6.57779 10.642 6.59711C10.6476 6.61643 10.6581 6.634 10.6724 6.64817L11.95 7.92575C11.9797 7.95499 12.0167 7.97586 12.057 7.98627C12.0974 7.99668 12.1398 7.99625 12.18 7.98503C13.1505 7.72251 14.1513 7.58915 15.1567 7.58842C17.569 7.58842 19.9338 8.32533 22.1849 9.78195C24.2426 11.1099 26.0822 12.9762 27.5063 15.1768C27.5073 15.1782 27.5079 15.1799 27.5079 15.1816C27.5079 15.1833 27.5073 15.185 27.5063 15.1863C26.4726 16.8136 25.1899 18.2686 23.7049 19.4981C23.6922 19.5086 23.6818 19.5216 23.6744 19.5363C23.667 19.551 23.6628 19.5671 23.6619 19.5836C23.6611 19.6 23.6637 19.6165 23.6696 19.6319C23.6754 19.6473 23.6845 19.6613 23.696 19.673L24.8758 20.8522C24.8967 20.8732 24.9247 20.8857 24.9543 20.8871C24.984 20.8886 25.0131 20.8788 25.0359 20.8599C26.6211 19.5251 27.9934 17.9561 29.1052 16.2072C29.3017 15.899 29.4056 15.5409 29.4045 15.1754C29.4035 14.8099 29.2975 14.4523 29.0992 14.1453Z" fill="#FFBD21"/>
<path d="M15.1769 9.48554C14.7506 9.48531 14.3256 9.53303 13.91 9.62782C13.889 9.63218 13.8695 9.64215 13.8538 9.65667C13.838 9.67119 13.8264 9.68971 13.8204 9.71027C13.8143 9.73083 13.8139 9.75266 13.8192 9.77342C13.8246 9.79419 13.8354 9.81312 13.8507 9.8282L20.5255 16.5013C20.5406 16.5165 20.5595 16.5274 20.5803 16.5327C20.6011 16.5381 20.6229 16.5377 20.6434 16.5316C20.664 16.5255 20.6825 16.514 20.6971 16.4982C20.7116 16.4824 20.7215 16.463 20.7259 16.442C20.9159 15.6085 20.9158 14.7429 20.7254 13.9094C20.535 13.076 20.1593 12.2961 19.6262 11.6278C19.0931 10.9595 18.4162 10.4198 17.646 10.049C16.8757 9.6781 16.0318 9.48552 15.1769 9.48554Z" fill="#FFBD21"/>
<path d="M9.82824 13.8524C9.81316 13.8372 9.79423 13.8263 9.77346 13.821C9.7527 13.8156 9.73087 13.816 9.71031 13.8221C9.68975 13.8282 9.67123 13.8397 9.65671 13.8555C9.64219 13.8713 9.63222 13.8907 9.62786 13.9117C9.41286 14.851 9.43986 15.8295 9.70632 16.7555C9.97278 17.6814 10.47 18.5246 11.1513 19.206C11.8327 19.8873 12.6758 20.3845 13.6018 20.651C14.5278 20.9174 15.5063 20.9444 16.4456 20.7294C16.4666 20.7251 16.486 20.7151 16.5018 20.7006C16.5176 20.6861 16.5291 20.6675 16.5352 20.647C16.5413 20.6264 16.5417 20.6046 16.5363 20.5838C16.531 20.5631 16.5201 20.5441 16.5049 20.5291L9.82824 13.8524Z" fill="#FFBD21"/>
</svg>
